Hit List 2012 Tamil Pre DVDRip 1CD XviD MP3 Team XDN
|| Feel Entertained



[B][COLOR="Red"]:: Movie Info ::[/COLOR][/B]

[IMG]http://www.shotpix.com/images/45056432984501704940.jpg[/IMG]

[B][COLOR="red"]Cast:-[/COLOR]Bala, Dhruv, Aishwarya Devan, Sandhya, Unni Mukundan, Narain, Tini Tom, Sasi Kalinga, Suresh Krishna, Rizabawa, "Thalaivasal" Vijay, Krishna, Riyaz Khan And Many OtherΓÇÖsΓÇª

[COLOR="red"]Music:-[/COLOR]Alphons Joseph

[COLOR="Red"]Director:-[/COLOR]Bala[/B]


[B][COLOR="red"]:: File Info ::[/COLOR]

Format : AVI
File size : 741 MiB
Duration : 2h 12mn
Overall bit rate : 780 Kbps

[COLOR="red"]:: Video ::[/COLOR]

Codec ID : XVID
Duration : 2h 12mn
Bit rate : 693 Kbps
Width : 608 pixels
Height : 252 pixels
Display aspect ratio : 2.40:1
Frame rate : 29.970 fps
Compression mode : Lossy
Stream size : 658 MiB (89%)

[COLOR="Red"]
:: Audio ::[/COLOR]

Mode : Joint stereo
Codec ID : MP3
Duration : 2h 12mn
Bit rate mode : Constant
Bit rate : 80.0 Kbps
Channel(s) : 2 channels
Sampling rate : 32.0 KHz
Compression mode : Lossy
Stream size : 76.0 MiB [/B]


[B][COLOR="Red"]:: Screenshot ::[/COLOR][/B]
 
http://img35.imageshack.us/img35/1351/vlcsnap2013010417h56m29.png
 
http://img35.imageshack.us/img35/2712/vlcsnap2013010417h56m57.png
 
http://img42.imageshack.us/img42/5499/vlcsnap2013010417h57m37.png



[B]Credits:Shammu[/B]

